<?xml version="1.0" encoding="utf-8"?>
<!-- Generator: Adobe Illustrator 25.4.1, SVG Export Plug-In . SVG Version: 6.00 Build 0)  -->
<!DOCTYPE svg PUBLIC "-//W3C//DTD SVG 1.1//EN" "http://www.w3.org/Graphics/SVG/1.1/DTD/svg11.dtd" [
	<!ENTITY ns_extend "http://ns.adobe.com/Extensibility/1.0/">
	<!ENTITY ns_ai "http://ns.adobe.com/AdobeIllustrator/10.0/">
	<!ENTITY ns_graphs "http://ns.adobe.com/Graphs/1.0/">
	<!ENTITY ns_vars "http://ns.adobe.com/Variables/1.0/">
	<!ENTITY ns_imrep "http://ns.adobe.com/ImageReplacement/1.0/">
	<!ENTITY ns_sfw "http://ns.adobe.com/SaveForWeb/1.0/">
	<!ENTITY ns_custom "http://ns.adobe.com/GenericCustomNamespace/1.0/">
	<!ENTITY ns_adobe_xpath "http://ns.adobe.com/XPath/1.0/">
]>
<svg version="1.1" id="Layer_1" xmlns:x="&ns_extend;" xmlns:i="&ns_ai;" xmlns:graph="&ns_graphs;"
	 xmlns="http://www.w3.org/2000/svg" xmlns:xlink="http://www.w3.org/1999/xlink" x="0px" y="0px" viewBox="0 0 512 512"
	 style="enable-background:new 0 0 512 512;" xml:space="preserve">
<style type="text/css">
	.st0{fill:#FF293A;}
</style>
<metadata>
	<sfw  xmlns="&ns_sfw;">
		<slices></slices>
		<sliceSourceBounds  bottomLeftOrigin="true" height="386.5" width="456" x="22" y="13.5"></sliceSourceBounds>
	</sfw>
</metadata>
<g transform="translate(1 1)">
	<g>
		<g>
			<path class="st0" d="M454.2,111H119.8c-12.9,0-22.8,8.4-22.8,19.3v186.8H28.6c-4.6,0-7.6,2.6-7.6,6.4v135.3
				c0,21.3,20.5,38.7,45.6,38.7h364.8c25.1,0,45.6-17.4,45.6-38.7V130.3C477,119.4,467.1,111,454.2,111z M36.2,458.8V330H97v128.8
				c0,14.2-13.7,25.8-30.4,25.8S36.2,473,36.2,458.8z M461.8,458.8c0,14.2-13.7,25.8-30.4,25.8H100.8c1.5-1.5,2.8-3.1,4-4.8
				c4.3-5.6,6.9-12.1,7.3-19.1c0-0.6,0.1-1.2,0.1-1.8V323.6V130.3c0-3.9,3-6.4,7.6-6.4h334.4c4.6,0,7.6,2.6,7.6,6.4L461.8,458.8
				L461.8,458.8z"/>
			<path class="st0" d="M264.2,143.2H142.6c-4.6,0-7.6,2.6-7.6,6.4V272c0,3.9,3,6.4,7.6,6.4h121.6c4.6,0,7.6-2.6,7.6-6.4V149.6
				C271.8,145.8,268.8,143.2,264.2,143.2z M256.6,265.6H150.2V156.1h106.4L256.6,265.6L256.6,265.6z"/>
			<path class="st0" d="M431.4,143.2H309.8c-4.6,0-7.6,2.6-7.6,6.4V272c0,3.9,3,6.4,7.6,6.4h121.6c4.6,0,7.6-2.6,7.6-6.4V149.6
				C439,145.8,436,143.2,431.4,143.2z M423.8,265.6H317.4V156.1h106.4V265.6z"/>
			<path class="st0" d="M264.2,297.8H142.6c-4.6,0-7.6,2.6-7.6,6.4c0,3.9,3,6.4,7.6,6.4h121.6c4.6,0,7.6-2.6,7.6-6.4
				C271.8,300.4,268.8,297.8,264.2,297.8z"/>
			<path class="st0" d="M264.2,330H142.6c-4.6,0-7.6,2.6-7.6,6.4s3,6.4,7.6,6.4h121.6c4.6,0,7.6-2.6,7.6-6.4S268.8,330,264.2,330z"
				/>
			<path class="st0" d="M264.2,362.2H142.6c-4.6,0-7.6,2.6-7.6,6.4c0,3.9,3,6.4,7.6,6.4h121.6c4.6,0,7.6-2.6,7.6-6.4
				C271.8,364.8,268.8,362.2,264.2,362.2z"/>
			<path class="st0" d="M264.2,394.4H142.6c-4.6,0-7.6,2.6-7.6,6.4s3,6.4,7.6,6.4h121.6c4.6,0,7.6-2.6,7.6-6.4
				S268.8,394.4,264.2,394.4z"/>
			<path class="st0" d="M264.2,426.6H142.6c-4.6,0-7.6,2.6-7.6,6.4s3,6.4,7.6,6.4h121.6c4.6,0,7.6-2.6,7.6-6.4
				S268.8,426.6,264.2,426.6z"/>
			<path class="st0" d="M431.4,297.8H309.8c-4.6,0-7.6,2.6-7.6,6.4c0,3.9,3,6.4,7.6,6.4h121.6c4.6,0,7.6-2.6,7.6-6.4
				C439,300.4,436,297.8,431.4,297.8z"/>
			<path class="st0" d="M431.4,330H309.8c-4.6,0-7.6,2.6-7.6,6.4s3,6.4,7.6,6.4h121.6c4.6,0,7.6-2.6,7.6-6.4S436,330,431.4,330z"/>
			<path class="st0" d="M431.4,362.2H309.8c-4.6,0-7.6,2.6-7.6,6.4c0,3.9,3,6.4,7.6,6.4h121.6c4.6,0,7.6-2.6,7.6-6.4
				C439,364.8,436,362.2,431.4,362.2z"/>
			<path class="st0" d="M431.4,394.4H309.8c-4.6,0-7.6,2.6-7.6,6.4s3,6.4,7.6,6.4h121.6c4.6,0,7.6-2.6,7.6-6.4
				S436,394.4,431.4,394.4z"/>
			<path class="st0" d="M431.4,426.6H309.8c-4.6,0-7.6,2.6-7.6,6.4s3,6.4,7.6,6.4h121.6c4.6,0,7.6-2.6,7.6-6.4
				S436,426.6,431.4,426.6z"/>
			<path class="st0" d="M188.2,458.8h-45.6c-4.6,0-7.6,2.6-7.6,6.4c0,3.9,3,6.4,7.6,6.4h45.6c4.6,0,7.6-2.6,7.6-6.4
				C195.8,461.4,192.8,458.8,188.2,458.8z"/>
			<path class="st0" d="M385.8,458.8h-76c-4.6,0-7.6,2.6-7.6,6.4c0,3.9,3,6.4,7.6,6.4h76c4.6,0,7.6-2.6,7.6-6.4
				C393.4,461.4,390.4,458.8,385.8,458.8z"/>
		</g>
	</g>
</g>
</svg>
