<?xml version="1.0" encoding="utf-8"?>
<!-- Generator: Adobe Illustrator 25.4.1, SVG Export Plug-In . SVG Version: 6.00 Build 0)  -->
<!DOCTYPE svg PUBLIC "-//W3C//DTD SVG 1.1//EN" "http://www.w3.org/Graphics/SVG/1.1/DTD/svg11.dtd" [
	<!ENTITY ns_extend "http://ns.adobe.com/Extensibility/1.0/">
	<!ENTITY ns_ai "http://ns.adobe.com/AdobeIllustrator/10.0/">
	<!ENTITY ns_graphs "http://ns.adobe.com/Graphs/1.0/">
	<!ENTITY ns_vars "http://ns.adobe.com/Variables/1.0/">
	<!ENTITY ns_imrep "http://ns.adobe.com/ImageReplacement/1.0/">
	<!ENTITY ns_sfw "http://ns.adobe.com/SaveForWeb/1.0/">
	<!ENTITY ns_custom "http://ns.adobe.com/GenericCustomNamespace/1.0/">
	<!ENTITY ns_adobe_xpath "http://ns.adobe.com/XPath/1.0/">
]>
<svg version="1.1" id="Layer_1" xmlns:x="&ns_extend;" xmlns:i="&ns_ai;" xmlns:graph="&ns_graphs;"
	 xmlns="http://www.w3.org/2000/svg" xmlns:xlink="http://www.w3.org/1999/xlink" x="0px" y="0px" viewBox="0 0 512 512"
	 style="enable-background:new 0 0 512 512;" xml:space="preserve">
<style type="text/css">
	.st0{fill:#FF293A;}
</style>
<metadata>
	<sfw  xmlns="&ns_sfw;">
		<slices></slices>
		<sliceSourceBounds  bottomLeftOrigin="true" height="482.1" width="483" x="18.7" y="12.9"></sliceSourceBounds>
	</sfw>
</metadata>
<path class="st0" d="M480.7,108.5L258.1,17L37.6,110.5v65h443.1V108.5z M267.8,142.3v15.5h-14.9v-14.6c-8.5-0.4-16.4-2.5-20.6-4.7
	L236,123c4.9,2.5,12.7,5.1,20.8,5.1c8.9,0,13-3.8,13-9.3c0-5.5-4.2-7.6-14.2-11.3c-14-4.9-22.9-11.9-22.9-24.6
	c0-11.1,7.2-19.8,19.8-23.2V44.2h14.9v14.6c7.6,0.4,12.8,1.9,17,4.2L280.4,78c-3.4-1.3-9.3-3.8-16.8-3.8c-7.7,0-11.9,3.8-11.9,7.7
	c0,5.1,4.9,7.4,15.5,11.5c14.4,5.1,21.2,12.7,21.2,24.6C288.2,129.6,281.6,138.5,267.8,142.3z M483.2,452.2V415h-18.5V232.2h18.5
	v-37H37.4v37.2h19.1v182.7H37.2v37H18.7v46.9h483v-46.9L483.2,452.2z M93.7,415.3V232.6h37.2v182.7H93.7z M167.8,415.3V232.6H205
	v182.7H167.8z M242.2,415.3V232.6h37.2v182.7H242.2z M316.3,415.3V232.6h37.2v182.7H316.3z M390.6,415.3V232.6h37.2v182.7H390.6z"/>
</svg>
