<?xml version="1.0" encoding="utf-8"?>
<!-- Generator: Adobe Illustrator 25.4.1, SVG Export Plug-In . SVG Version: 6.00 Build 0)  -->
<!DOCTYPE svg PUBLIC "-//W3C//DTD SVG 1.1//EN" "http://www.w3.org/Graphics/SVG/1.1/DTD/svg11.dtd" [
	<!ENTITY ns_extend "http://ns.adobe.com/Extensibility/1.0/">
	<!ENTITY ns_ai "http://ns.adobe.com/AdobeIllustrator/10.0/">
	<!ENTITY ns_graphs "http://ns.adobe.com/Graphs/1.0/">
	<!ENTITY ns_vars "http://ns.adobe.com/Variables/1.0/">
	<!ENTITY ns_imrep "http://ns.adobe.com/ImageReplacement/1.0/">
	<!ENTITY ns_sfw "http://ns.adobe.com/SaveForWeb/1.0/">
	<!ENTITY ns_custom "http://ns.adobe.com/GenericCustomNamespace/1.0/">
	<!ENTITY ns_adobe_xpath "http://ns.adobe.com/XPath/1.0/">
]>
<svg version="1.1" id="Capa_1" xmlns:x="&ns_extend;" xmlns:i="&ns_ai;" xmlns:graph="&ns_graphs;"
	 xmlns="http://www.w3.org/2000/svg" xmlns:xlink="http://www.w3.org/1999/xlink" x="0px" y="0px" viewBox="0 0 396 396"
	 style="enable-background:new 0 0 396 396;" xml:space="preserve">
<style type="text/css">
	.st0{fill:#FF293A;}
</style>
<metadata>
	<sfw  xmlns="&ns_sfw;">
		<slices></slices>
		<sliceSourceBounds  bottomLeftOrigin="true" height="396" width="323.2" x="36.4" y="0"></sliceSourceBounds>
	</sfw>
</metadata>
<g>
	<path class="st0" d="M350.3,148c8.5-24.9,8.5-35.7,8.5-41.5C358.8,47.8,311,0,252.3,0S145.7,47.8,145.7,106.5c0,5.3,0,14,5.7,32.9
		l-13.2,5l-76.5-39.5c-2.5-1.3-5.2-1.9-8-1.9c-3.2,0-6.3,0.9-9,2.5c-5.1,3.1-8.3,8.8-8.3,14.8v215.2c0,6.5,3.6,12.4,9.4,15.4
		l83.4,43.1c4.3,2.2,9.6,2.5,14.2,0.8l105.7-40.4l85.7,40c2.3,1.1,4.8,1.6,7.3,1.6c3.3,0,6.5-0.9,9.3-2.7c5-3.2,8-8.7,8-14.6V163.4
		C359.6,157,356,151,350.3,148z M298,203.7c-16.8,34.8-33.2,64.2-33.4,64.5c-2.5,4.5-7.2,7.2-12.3,7.2c-5.1,0-9.8-2.8-12.3-7.2
		c-0.2-0.3-16.6-29.8-33.4-64.5c-34.4-71.2-34.4-90.7-34.4-97.2c0-44.1,35.9-80,80-80s80,35.9,80,80
		C332.4,112.9,332.4,132.5,298,203.7z"/>
	<path class="st0" d="M252.4,70.1c-23.1,0-41.9,18.8-41.9,41.9c0,23.1,18.8,41.9,41.9,41.9c23.1,0,41.9-18.8,41.9-41.9
		C294.3,88.9,275.5,70.1,252.4,70.1z"/>
</g>
</svg>
