<?xml version="1.0" encoding="utf-8"?>
<!-- Generator: Adobe Illustrator 25.4.1, SVG Export Plug-In . SVG Version: 6.00 Build 0)  -->
<!DOCTYPE svg PUBLIC "-//W3C//DTD SVG 1.1//EN" "http://www.w3.org/Graphics/SVG/1.1/DTD/svg11.dtd" [
	<!ENTITY ns_extend "http://ns.adobe.com/Extensibility/1.0/">
	<!ENTITY ns_ai "http://ns.adobe.com/AdobeIllustrator/10.0/">
	<!ENTITY ns_graphs "http://ns.adobe.com/Graphs/1.0/">
	<!ENTITY ns_vars "http://ns.adobe.com/Variables/1.0/">
	<!ENTITY ns_imrep "http://ns.adobe.com/ImageReplacement/1.0/">
	<!ENTITY ns_sfw "http://ns.adobe.com/SaveForWeb/1.0/">
	<!ENTITY ns_custom "http://ns.adobe.com/GenericCustomNamespace/1.0/">
	<!ENTITY ns_adobe_xpath "http://ns.adobe.com/XPath/1.0/">
]>
<svg version="1.1" id="Layer_1" xmlns:x="&ns_extend;" xmlns:i="&ns_ai;" xmlns:graph="&ns_graphs;"
	 xmlns="http://www.w3.org/2000/svg" xmlns:xlink="http://www.w3.org/1999/xlink" x="0px" y="0px" viewBox="0 0 512 512"
	 style="enable-background:new 0 0 512 512;" xml:space="preserve">
<style type="text/css">
	.st0{fill:#FF293A;}
</style>
<metadata>
	<sfw  xmlns="&ns_sfw;">
		<slices></slices>
		<sliceSourceBounds  bottomLeftOrigin="true" height="512" width="442.8" x="31.1" y="0.5"></sliceSourceBounds>
	</sfw>
</metadata>
<g>
	<g>
		<polygon class="st0" points="318.9,-0.5 152.9,165.6 201.8,165.6 343.4,24 		"/>
	</g>
</g>
<g>
	<g>
		<path class="st0" d="M376,56.6l-109,109h85.1c-2.4-9.5,0.1-20,7.6-27.4c11.3-11.3,29.5-11.3,40.8,0c7.4,7.4,9.9,17.9,7.6,27.4
			h54.8l11.1-11.1L376,56.6z"/>
	</g>
</g>
<g>
	<path class="st0" d="M208.3,313.1c-2.6,2.6-4,5.9-4,10.1v0.5c0,4.3,1.2,7.7,3.5,10.2c2.3,2.7,5.8,4.9,10.5,6.6v-32.5
		C214.3,308.6,210.9,310.2,208.3,313.1z"/>
	<path class="st0" d="M247,389.8v33.8c9.5-1.6,14.3-6.9,14.3-15.7v-0.5c0-4.8-1.2-8.4-3.6-11C255.2,393.6,251.6,391.4,247,389.8z"/>
	<path class="st0" d="M321.7,317.8h152.2V207.1H31.1v304.4h442.8V400.8H321.7l-13.8-41.5v0L321.7,317.8z M303.8,405.7
		c0,7.4-1.4,14.1-4.2,19.9c-2.6,6.1-6.4,11.3-11.3,15.7c-4.9,4.4-11,8.1-18,11c-7.1,2.9-14.4,4.7-22,5.5V484h-31.4v-26.7
		c-10.5-1.4-21.1-4.2-32-8.4c-10.7-4.4-20.6-10.1-29.8-17l22-32c8.6,6.6,16.2,11.6,22.8,15.2c6.5,3.5,12.6,5.8,18.4,6.8v-40
		c-8.7-2.4-16.7-5.2-24.2-8.3c-7.2-3.2-13.2-7.1-18-11.6c-4.7-4.5-8.2-9.7-10.5-15.6c-2.5-5.9-3.7-12.6-3.7-20.2v-0.5
		c0-7.3,1.3-14,4-19.9c2.7-6,6.5-11.2,11.3-15.7c4.9-4.4,11-8.1,18-11c7.2-2.6,14.4-4.4,21.7-5.2v-15.5h31.4v16
		c8.6,1.4,17,3.7,25.2,6.9c8.1,3.3,15.9,7.7,23.5,13l-18.8,32.7c-6.8-4.7-12.9-8.4-18.2-11c-5.3-2.6-9.6-4.3-13-5.2v38
		c19.5,5.2,33.8,12.3,43,21.2c9.2,8.9,13.8,20.6,13.8,35.3V405.7z"/>
</g>
</svg>
